<?xml version="1.0" encoding="utf-8" ?>
<svg baseProfile="full" height="1771.6535000000001" version="1.1" width="1913.38578" xmlns="http://www.w3.org/2000/svg" xmlns:ev="http://www.w3.org/2001/xml-events" xmlns:xlink="http://www.w3.org/1999/xlink"><defs /><rect fill="white" height="1771.6535000000001" opacity="1" stroke-width="0" width="1913.38578" x="0.0" y="0.0" /><g><g id="vlines" stroke="lightgray"><line x1="0.0" x2="0.0" y1="70.86614" y2="1736.22043" /><text fill="#400000" font-family="Verdana" font-size="20" font-weight="bold" stroke="#400000" stroke-width="0" x="3.543307" y="17.716535">2019</text><text fill="#800000" font-family="Verdana" font-size="18" font-weight="bold" stroke="#800000" stroke-width="0" x="3.543307" y="35.43307">January</text><text fill="black" font-family="Verdana" font-size="16" font-weight="bold" stroke="black" stroke-width="0" x="3.543307" y="53.149605">01</text><line x1="35.43307" x2="35.43307" y1="70.86614" y2="1736.22043" /><text fill="black" font-family="Verdana" font-size="16" font-weight="bold" stroke="black" stroke-width="0" x="38.976377" y="53.149605">02</text><line x1="70.86614" x2="70.86614" y1="70.86614" y2="1736.22043" /><text fill="black" font-family="Verdana" font-size="16" font-weight="bold" stroke="black" stroke-width="0" x="74.409447" y="53.149605">03</text><line x1="106.29921" x2="106.29921" y1="70.86614" y2="1736.22043" /><text fill="black" font-family="Verdana" font-size="16" font-weight="bold" stroke="black" stroke-width="0" x="109.842517" y="53.149605">04</text><line x1="141.73228" x2="141.73228" y1="70.86614" y2="1736.22043" /><text fill="black" font-family="Verdana" font-size="16" font-weight="bold" stroke="black" stroke-width="0" x="145.275587" y="53.149605">05</text><line x1="177.16535" x2="177.16535" y1="70.86614" y2="1736.22043" /><text fill="#800000" font-family="Verdana" font-size="18" font-weight="bold" stroke="#800000" stroke-width="0" x="180.708657" y="35.43307">February</text><text fill="black" font-family="Verdana" font-size="16" font-weight="bold" stroke="black" stroke-width="0" x="180.708657" y="53.149605">06</text><line x1="212.59842" x2="212.59842" y1="70.86614" y2="1736.22043" /><text fill="black" font-family="Verdana" font-size="16" font-weight="bold" stroke="black" stroke-width="0" x="216.141727" y="53.149605">07</text><line x1="248.03149000000002" x2="248.03149000000002" y1="70.86614" y2="1736.22043" /><text fill="black" font-family="Verdana" font-size="16" font-weight="bold" stroke="black" stroke-width="0" x="251.574797" y="53.149605">08</text><line x1="283.46456" x2="283.46456" y1="70.86614" y2="1736.22043" /><text fill="black" font-family="Verdana" font-size="16" font-weight="bold" stroke="black" stroke-width="0" x="287.007867" y="53.149605">09</text><line x1="318.89763" x2="318.89763" y1="70.86614" y2="1736.22043" /><text fill="#800000" font-family="Verdana" font-size="18" font-weight="bold" stroke="#800000" stroke-width="0" x="322.440937" y="35.43307">March</text><text fill="black" font-family="Verdana" font-size="16" font-weight="bold" stroke="black" stroke-width="0" x="322.440937" y="53.149605">10</text><line x1="354.3307" x2="354.3307" y1="70.86614" y2="1736.22043" /><text fill="black" font-family="Verdana" font-size="16" font-weight="bold" stroke="black" stroke-width="0" x="357.874007" y="53.149605">11</text><line x1="389.76377" x2="389.76377" y1="70.86614" y2="1736.22043" /><text fill="black" font-family="Verdana" font-size="16" font-weight="bold" stroke="black" stroke-width="0" x="393.307077" y="53.149605">12</text><line x1="425.19684" x2="425.19684" y1="70.86614" y2="1736.22043" /><text fill="black" font-family="Verdana" font-size="16" font-weight="bold" stroke="black" stroke-width="0" x="428.740147" y="53.149605">13</text><line x1="460.62991" x2="460.62991" y1="70.86614" y2="1736.22043" /><text fill="#800000" font-family="Verdana" font-size="18" font-weight="bold" stroke="#800000" stroke-width="0" x="464.173217" y="35.43307">April</text><text fill="black" font-family="Verdana" font-size="16" font-weight="bold" stroke="black" stroke-width="0" x="464.173217" y="53.149605">14</text><line x1="496.06298000000004" x2="496.06298000000004" y1="70.86614" y2="1736.22043" /><text fill="black" font-family="Verdana" font-size="16" font-weight="bold" stroke="black" stroke-width="0" x="499.606287" y="53.149605">15</text><line x1="531.49605" x2="531.49605" y1="70.86614" y2="1736.22043" /><text fill="black" font-family="Verdana" font-size="16" font-weight="bold" stroke="black" stroke-width="0" x="535.039357" y="53.149605">16</text><line x1="566.92912" x2="566.92912" y1="70.86614" y2="1736.22043" /><text fill="black" font-family="Verdana" font-size="16" font-weight="bold" stroke="black" stroke-width="0" x="570.472427" y="53.149605">17</text><line x1="602.36219" x2="602.36219" y1="70.86614" y2="1736.22043" /><text fill="black" font-family="Verdana" font-size="16" font-weight="bold" stroke="black" stroke-width="0" x="605.905497" y="53.149605">18</text><line x1="637.79526" x2="637.79526" y1="70.86614" y2="1736.22043" /><text fill="#800000" font-family="Verdana" font-size="18" font-weight="bold" stroke="#800000" stroke-width="0" x="641.338567" y="35.43307">May</text><text fill="black" font-family="Verdana" font-size="16" font-weight="bold" stroke="black" stroke-width="0" x="641.338567" y="53.149605">19</text><line x1="673.22833" x2="673.22833" y1="70.86614" y2="1736.22043" /><text fill="black" font-family="Verdana" font-size="16" font-weight="bold" stroke="black" stroke-width="0" x="676.7716369999999" y="53.149605">20</text><line x1="708.6614" x2="708.6614" y1="70.86614" y2="1736.22043" /><text fill="black" font-family="Verdana" font-size="16" font-weight="bold" stroke="black" stroke-width="0" x="712.204707" y="53.149605">21</text><line x1="744.09447" x2="744.09447" y1="70.86614" y2="1736.22043" /><text fill="black" font-family="Verdana" font-size="16" font-weight="bold" stroke="black" stroke-width="0" x="747.637777" y="53.149605">22</text><line x1="779.52754" x2="779.52754" y1="70.86614" y2="1736.22043" /><text fill="#800000" font-family="Verdana" font-size="18" font-weight="bold" stroke="#800000" stroke-width="0" x="783.070847" y="35.43307">June</text><text fill="black" font-family="Verdana" font-size="16" font-weight="bold" stroke="black" stroke-width="0" x="783.070847" y="53.149605">23</text><line x1="814.96061" x2="814.96061" y1="70.86614" y2="1736.22043" /><text fill="black" font-family="Verdana" font-size="16" font-weight="bold" stroke="black" stroke-width="0" x="818.503917" y="53.149605">24</text><line x1="850.39368" x2="850.39368" y1="70.86614" y2="1736.22043" /><text fill="black" font-family="Verdana" font-size="16" font-weight="bold" stroke="black" stroke-width="0" x="853.936987" y="53.149605">25</text><line x1="885.8267500000001" x2="885.8267500000001" y1="70.86614" y2="1736.22043" /><text fill="black" font-family="Verdana" font-size="16" font-weight="bold" stroke="black" stroke-width="0" x="889.370057" y="53.149605">26</text><line x1="921.25982" x2="921.25982" y1="70.86614" y2="1736.22043" /><text fill="#800000" font-family="Verdana" font-size="18" font-weight="bold" stroke="#800000" stroke-width="0" x="924.803127" y="35.43307">July</text><text fill="black" font-family="Verdana" font-size="16" font-weight="bold" stroke="black" stroke-width="0" x="924.803127" y="53.149605">27</text><line x1="956.69289" x2="956.69289" y1="70.86614" y2="1736.22043" /><text fill="black" font-family="Verdana" font-size="16" font-weight="bold" stroke="black" stroke-width="0" x="960.236197" y="53.149605">28</text><line x1="992.1259600000001" x2="992.1259600000001" y1="70.86614" y2="1736.22043" /><text fill="black" font-family="Verdana" font-size="16" font-weight="bold" stroke="black" stroke-width="0" x="995.669267" y="53.149605">29</text><line x1="1027.5590300000001" x2="1027.5590300000001" y1="70.86614" y2="1736.22043" /><text fill="black" font-family="Verdana" font-size="16" font-weight="bold" stroke="black" stroke-width="0" x="1031.102337" y="53.149605">30</text><line x1="1062.9921" x2="1062.9921" y1="70.86614" y2="1736.22043" /><text fill="black" font-family="Verdana" font-size="16" font-weight="bold" stroke="black" stroke-width="0" x="1066.535407" y="53.149605">31</text><line x1="1098.42517" x2="1098.42517" y1="70.86614" y2="1736.22043" /><text fill="#800000" font-family="Verdana" font-size="18" font-weight="bold" stroke="#800000" stroke-width="0" x="1101.968477" y="35.43307">August</text><text fill="black" font-family="Verdana" font-size="16" font-weight="bold" stroke="black" stroke-width="0" x="1101.968477" y="53.149605">32</text><line x1="1133.85824" x2="1133.85824" y1="70.86614" y2="1736.22043" /><text fill="black" font-family="Verdana" font-size="16" font-weight="bold" stroke="black" stroke-width="0" x="1137.401547" y="53.149605">33</text><line x1="1169.29131" x2="1169.29131" y1="70.86614" y2="1736.22043" /><text fill="black" font-family="Verdana" font-size="16" font-weight="bold" stroke="black" stroke-width="0" x="1172.834617" y="53.149605">34</text><line x1="1204.72438" x2="1204.72438" y1="70.86614" y2="1736.22043" /><text fill="black" font-family="Verdana" font-size="16" font-weight="bold" stroke="black" stroke-width="0" x="1208.267687" y="53.149605">35</text><line x1="1240.15745" x2="1240.15745" y1="70.86614" y2="1736.22043" /><text fill="#800000" font-family="Verdana" font-size="18" font-weight="bold" stroke="#800000" stroke-width="0" x="1243.700757" y="35.43307">September</text><text fill="black" font-family="Verdana" font-size="16" font-weight="bold" stroke="black" stroke-width="0" x="1243.700757" y="53.149605">36</text><line x1="1275.59052" x2="1275.59052" y1="70.86614" y2="1736.22043" /><text fill="black" font-family="Verdana" font-size="16" font-weight="bold" stroke="black" stroke-width="0" x="1279.1338269999999" y="53.149605">37</text><line x1="1311.02359" x2="1311.02359" y1="70.86614" y2="1736.22043" /><text fill="black" font-family="Verdana" font-size="16" font-weight="bold" stroke="black" stroke-width="0" x="1314.566897" y="53.149605">38</text><line x1="1346.45666" x2="1346.45666" y1="70.86614" y2="1736.22043" /><text fill="black" font-family="Verdana" font-size="16" font-weight="bold" stroke="black" stroke-width="0" x="1349.999967" y="53.149605">39</text><line x1="1381.88973" x2="1381.88973" y1="70.86614" y2="1736.22043" /><text fill="#800000" font-family="Verdana" font-size="18" font-weight="bold" stroke="#800000" stroke-width="0" x="1385.433037" y="35.43307">October</text><text fill="black" font-family="Verdana" font-size="16" font-weight="bold" stroke="black" stroke-width="0" x="1385.433037" y="53.149605">40</text><line x1="1417.3228" x2="1417.3228" y1="70.86614" y2="1736.22043" /><text fill="black" font-family="Verdana" font-size="16" font-weight="bold" stroke="black" stroke-width="0" x="1420.866107" y="53.149605">41</text><line x1="1452.75587" x2="1452.75587" y1="70.86614" y2="1736.22043" /><text fill="black" font-family="Verdana" font-size="16" font-weight="bold" stroke="black" stroke-width="0" x="1456.299177" y="53.149605">42</text><line x1="1488.18894" x2="1488.18894" y1="70.86614" y2="1736.22043" /><text fill="black" font-family="Verdana" font-size="16" font-weight="bold" stroke="black" stroke-width="0" x="1491.732247" y="53.149605">43</text><line x1="1523.62201" x2="1523.62201" y1="70.86614" y2="1736.22043" /><text fill="black" font-family="Verdana" font-size="16" font-weight="bold" stroke="black" stroke-width="0" x="1527.165317" y="53.149605">44</text><line x1="1559.05508" x2="1559.05508" y1="70.86614" y2="1736.22043" /><text fill="#800000" font-family="Verdana" font-size="18" font-weight="bold" stroke="#800000" stroke-width="0" x="1562.598387" y="35.43307">November</text><text fill="black" font-family="Verdana" font-size="16" font-weight="bold" stroke="black" stroke-width="0" x="1562.598387" y="53.149605">45</text><line x1="1594.4881500000001" x2="1594.4881500000001" y1="70.86614" y2="1736.22043" /><text fill="black" font-family="Verdana" font-size="16" font-weight="bold" stroke="black" stroke-width="0" x="1598.031457" y="53.149605">46</text><line x1="1629.92122" x2="1629.92122" y1="70.86614" y2="1736.22043" /><text fill="black" font-family="Verdana" font-size="16" font-weight="bold" stroke="black" stroke-width="0" x="1633.464527" y="53.149605">47</text><line x1="1665.35429" x2="1665.35429" y1="70.86614" y2="1736.22043" /><text fill="black" font-family="Verdana" font-size="16" font-weight="bold" stroke="black" stroke-width="0" x="1668.897597" y="53.149605">48</text><line x1="1700.78736" x2="1700.78736" y1="70.86614" y2="1736.22043" /><text fill="#800000" font-family="Verdana" font-size="18" font-weight="bold" stroke="#800000" stroke-width="0" x="1704.330667" y="35.43307">December</text><text fill="black" font-family="Verdana" font-size="16" font-weight="bold" stroke="black" stroke-width="0" x="1704.330667" y="53.149605">49</text><line x1="1736.22043" x2="1736.22043" y1="70.86614" y2="1736.22043" /><text fill="black" font-family="Verdana" font-size="16" font-weight="bold" stroke="black" stroke-width="0" x="1739.763737" y="53.149605">50</text><line x1="1771.6535000000001" x2="1771.6535000000001" y1="70.86614" y2="1736.22043" /><text fill="black" font-family="Verdana" font-size="16" font-weight="bold" stroke="black" stroke-width="0" x="1775.196807" y="53.149605">51</text><line x1="1807.08657" x2="1807.08657" y1="70.86614" y2="1736.22043" /><text fill="black" font-family="Verdana" font-size="16" font-weight="bold" stroke="black" stroke-width="0" x="1810.629877" y="53.149605">52</text><line x1="1842.51964" x2="1842.51964" y1="70.86614" y2="1736.22043" /><text fill="black" font-family="Verdana" font-size="16" font-weight="bold" stroke="black" stroke-width="0" x="1846.062947" y="53.149605">01</text><line x1="1877.95271" x2="1877.95271" y1="70.86614" y2="1736.22043" /><text fill="#800000" font-family="Verdana" font-size="18" font-weight="bold" stroke="#800000" stroke-width="0" x="1881.496017" y="35.43307">January</text><text fill="black" font-family="Verdana" font-size="16" font-weight="bold" stroke="black" stroke-width="0" x="1881.496017" y="53.149605">02</text><line x1="1913.38578" x2="1913.38578" y1="70.86614" y2="1736.22043" /></g><g id="hlines" stroke="lightgray"><line x1="0.0" x2="1913.38578" y1="70.86614" y2="70.86614" /><line x1="0.0" x2="1913.38578" y1="106.29921" y2="106.29921" /><line x1="0.0" x2="1913.38578" y1="141.73228" y2="141.73228" /><line x1="0.0" x2="1913.38578" y1="177.16535" y2="177.16535" /><line x1="0.0" x2="1913.38578" y1="212.59842" y2="212.59842" /><line x1="0.0" x2="1913.38578" y1="248.03149000000002" y2="248.03149000000002" /><line x1="0.0" x2="1913.38578" y1="283.46456" y2="283.46456" /><line x1="0.0" x2="1913.38578" y1="318.89763" y2="318.89763" /><line x1="0.0" x2="1913.38578" y1="354.3307" y2="354.3307" /><line x1="0.0" x2="1913.38578" y1="389.76377" y2="389.76377" /><line x1="0.0" x2="1913.38578" y1="425.19684" y2="425.19684" /><line x1="0.0" x2="1913.38578" y1="460.62991" y2="460.62991" /><line x1="0.0" x2="1913.38578" y1="496.06298000000004" y2="496.06298000000004" /><line x1="0.0" x2="1913.38578" y1="531.49605" y2="531.49605" /><line x1="0.0" x2="1913.38578" y1="566.92912" y2="566.92912" /><line x1="0.0" x2="1913.38578" y1="602.36219" y2="602.36219" /><line x1="0.0" x2="1913.38578" y1="637.79526" y2="637.79526" /><line x1="0.0" x2="1913.38578" y1="673.22833" y2="673.22833" /><line x1="0.0" x2="1913.38578" y1="708.6614" y2="708.6614" /><line x1="0.0" x2="1913.38578" y1="744.09447" y2="744.09447" /><line x1="0.0" x2="1913.38578" y1="779.52754" y2="779.52754" /><line x1="0.0" x2="1913.38578" y1="814.96061" y2="814.96061" /><line x1="0.0" x2="1913.38578" y1="850.39368" y2="850.39368" /><line x1="0.0" x2="1913.38578" y1="885.8267500000001" y2="885.8267500000001" /><line x1="0.0" x2="1913.38578" y1="921.25982" y2="921.25982" /><line x1="0.0" x2="1913.38578" y1="956.69289" y2="956.69289" /><line x1="0.0" x2="1913.38578" y1="992.1259600000001" y2="992.1259600000001" /><line x1="0.0" x2="1913.38578" y1="1027.5590300000001" y2="1027.5590300000001" /><line x1="0.0" x2="1913.38578" y1="1062.9921" y2="1062.9921" /><line x1="0.0" x2="1913.38578" y1="1098.42517" y2="1098.42517" /><line x1="0.0" x2="1913.38578" y1="1133.85824" y2="1133.85824" /><line x1="0.0" x2="1913.38578" y1="1169.29131" y2="1169.29131" /><line x1="0.0" x2="1913.38578" y1="1204.72438" y2="1204.72438" /><line x1="0.0" x2="1913.38578" y1="1240.15745" y2="1240.15745" /><line x1="0.0" x2="1913.38578" y1="1275.59052" y2="1275.59052" /><line x1="0.0" x2="1913.38578" y1="1311.02359" y2="1311.02359" /><line x1="0.0" x2="1913.38578" y1="1346.45666" y2="1346.45666" /><line x1="0.0" x2="1913.38578" y1="1381.88973" y2="1381.88973" /><line x1="0.0" x2="1913.38578" y1="1417.3228" y2="1417.3228" /><line x1="0.0" x2="1913.38578" y1="1452.75587" y2="1452.75587" /><line x1="0.0" x2="1913.38578" y1="1488.18894" y2="1488.18894" /><line x1="0.0" x2="1913.38578" y1="1523.62201" y2="1523.62201" /><line x1="0.0" x2="1913.38578" y1="1559.05508" y2="1559.05508" /><line x1="0.0" x2="1913.38578" y1="1594.4881500000001" y2="1594.4881500000001" /><line x1="0.0" x2="1913.38578" y1="1629.92122" y2="1629.92122" /><line x1="0.0" x2="1913.38578" y1="1665.35429" y2="1665.35429" /><line x1="0.0" x2="1913.38578" y1="1700.78736" y2="1700.78736" /><line x1="0.0" x2="1913.38578" y1="1736.22043" y2="1736.22043" /></g><line stroke="black" x1="0.0" x2="1913.38578" y1="70.86614" y2="70.86614" /><line stroke="black" x1="0.0" x2="1913.38578" y1="1736.22043" y2="1736.22043" /></g><g><g><text fill="black" font-family="Verdana" font-size="18" stroke="black" stroke-width="0" x="10.629921" y="95.669289">Gantt</text><rect fill="purple" height="1644.094448" opacity="0.5" stroke="lightgray" stroke-width="0" width="7.086614000000001" x="2.8346456" y="88.582675" /><g><g id="AIDA"><rect fill="#FFFF90" height="28.346456" opacity="0.85" stroke="#FFFF90" stroke-width="2" width="453.543296" x="3.543307" y="109.842517" /><rect fill="#909090" height="10.629921" opacity="0.2" stroke="#FFFF90" stroke-width="1" width="453.543296" x="3.543307" y="127.559052" /><rect fill="#0000FF" height="14.173228" opacity="0.35" stroke="#FFFF90" stroke-width="1" width="17.716535" x="3.543307" y="109.842517" /><rect fill="#0000FF" height="14.173228" opacity="0.35" stroke="#FFFF90" stroke-width="1" width="17.716535" x="439.370068" y="109.842517" /><rect fill="#000000" height="28.346456" opacity="0.2" stroke="#FFFF90" stroke-width="1" width="17.716535" x="3.543307" y="109.842517" /><text fill="black" font-family="Verdana" font-size="15" stroke="black" stroke-width="0" x="7.086614" y="124.015745">AIDA</text></g><g id="DetectorChecker"><rect fill="#FFFF90" height="28.346456" opacity="0.85" stroke="#FFFF90" stroke-width="2" width="170.078736" x="3.543307" y="145.275587" /><rect fill="#909090" height="10.629921" opacity="0.2" stroke="#FFFF90" stroke-width="1" width="170.078736" x="3.543307" y="162.992122" /><rect fill="#000000" height="28.346456" opacity="0.2" stroke="#FFFF90" stroke-width="1" width="17.716535" x="3.543307" y="145.275587" /><text fill="black" font-family="Verdana" font-size="15" stroke="black" stroke-width="0" x="7.086614" y="159.448815">DetectorChecker</text></g><g id="AI_for_City_Planning"><rect fill="#FFFF90" height="28.346456" opacity="0.85" stroke="#FFFF90" stroke-width="2" width="772.440926" x="3.543307" y="180.708657" /><rect fill="#909090" height="10.629921" opacity="0.2" stroke="#FFFF90" stroke-width="1" width="772.440926" x="3.543307" y="198.425192" /><rect fill="#000000" height="28.346456" opacity="0.2" stroke="#FFFF90" stroke-width="1" width="17.716535" x="3.543307" y="180.708657" /><text fill="black" font-family="Verdana" font-size="15" stroke="black" stroke-width="0" x="7.086614" y="194.881885">AI for City Planning</text></g><g id="Training_delivery"><rect fill="#FFFF90" height="28.346456" opacity="0.85" stroke="#FFFF90" stroke-width="2" width="453.543296" x="3.543307" y="216.141727" /><rect fill="#909090" height="10.629921" opacity="0.2" stroke="#FFFF90" stroke-width="1" width="453.543296" x="3.543307" y="233.858262" /><rect fill="#000000" height="28.346456" opacity="0.2" stroke="#FFFF90" stroke-width="1" width="17.716535" x="3.543307" y="216.141727" /><text fill="black" font-family="Verdana" font-size="15" stroke="black" stroke-width="0" x="7.086614" y="230.314955">Training delivery</text></g><g id="The_Turing_Way"><rect fill="#FFFF90" height="28.346456" opacity="0.85" stroke="#FFFF90" stroke-width="2" width="453.543296" x="3.543307" y="251.574797" /><rect fill="#909090" height="10.629921" opacity="0.2" stroke="#FFFF90" stroke-width="1" width="453.543296" x="3.543307" y="269.291332" /><rect fill="#0000FF" height="14.173228" opacity="0.35" stroke="#FFFF90" stroke-width="1" width="17.716535" x="439.370068" y="251.574797" /><rect fill="#000000" height="28.346456" opacity="0.2" stroke="#FFFF90" stroke-width="1" width="17.716535" x="3.543307" y="251.574797" /><text fill="black" font-family="Verdana" font-size="15" stroke="black" stroke-width="0" x="7.086614" y="265.748025">The Turing Way</text></g><g id="Misinformation"><rect fill="#FFFF90" height="28.346456" opacity="0.85" stroke="#FFFF90" stroke-width="2" width="453.543296" x="3.543307" y="287.007867" /><rect fill="#909090" height="10.629921" opacity="0.2" stroke="#FFFF90" stroke-width="1" width="453.543296" x="3.543307" y="304.724402" /><rect fill="#0000FF" height="14.173228" opacity="0.35" stroke="#FFFF90" stroke-width="1" width="17.716535" x="3.543307" y="287.007867" /><rect fill="#000000" height="28.346456" opacity="0.2" stroke="#FFFF90" stroke-width="1" width="17.716535" x="3.543307" y="287.007867" /><text fill="black" font-family="Verdana" font-size="15" stroke="black" stroke-width="0" x="7.086614" y="301.18109499999997">Misinformation</text></g><g id="Fitbit_classification"><rect fill="#FFFF90" height="28.346456" opacity="0.85" stroke="#FFFF90" stroke-width="2" width="1870.866096" x="3.543307" y="322.440937" /><rect fill="#909090" height="10.629921" opacity="0.2" stroke="#FFFF90" stroke-width="1" width="1870.866096" x="3.543307" y="340.157472" /><rect fill="#000000" height="28.346456" opacity="0.2" stroke="#FFFF90" stroke-width="1" width="17.716535" x="3.543307" y="322.440937" /><rect fill="#000000" height="28.346456" opacity="0.2" stroke="#FFFF90" stroke-width="1" width="17.716535" x="1856.692868" y="322.440937" /><text fill="black" font-family="Verdana" font-size="15" stroke="black" stroke-width="0" x="7.086614" y="336.614165">Fitbit classification</text></g><g id="Parallel_Monte_Carlo"><rect fill="#FFFF90" height="28.346456" opacity="0.85" stroke="#FFFF90" stroke-width="2" width="772.440926" x="3.543307" y="357.874007" /><rect fill="#909090" height="10.629921" opacity="0.2" stroke="#FFFF90" stroke-width="1" width="772.440926" x="3.543307" y="375.59054199999997" /><rect fill="#000000" height="28.346456" opacity="0.2" stroke="#FFFF90" stroke-width="1" width="17.716535" x="3.543307" y="357.874007" /><text fill="black" font-family="Verdana" font-size="15" stroke="black" stroke-width="0" x="7.086614" y="372.047235">Parallel Monte Carlo</text></g><g id="Living_With_Machines"><rect fill="#FFFF90" height="28.346456" opacity="0.85" stroke="#FFFF90" stroke-width="2" width="1870.866096" x="3.543307" y="393.307077" /><rect fill="#909090" height="10.629921" opacity="0.2" stroke="#FFFF90" stroke-width="1" width="1870.866096" x="3.543307" y="411.023612" /><rect fill="#000000" height="28.346456" opacity="0.2" stroke="#FFFF90" stroke-width="1" width="17.716535" x="3.543307" y="393.307077" /><rect fill="#000000" height="28.346456" opacity="0.2" stroke="#FFFF90" stroke-width="1" width="17.716535" x="1856.692868" y="393.307077" /><text fill="black" font-family="Verdana" font-size="15" stroke="black" stroke-width="0" x="7.086614" y="407.480305">Living With Machines</text></g><g id="BA__IAG_"><rect fill="#FFFF90" height="28.346456" opacity="0.85" stroke="#FFFF90" stroke-width="2" width="170.078736" x="3.543307" y="428.740147" /><rect fill="#909090" height="10.629921" opacity="0.2" stroke="#FFFF90" stroke-width="1" width="170.078736" x="3.543307" y="446.456682" /><rect fill="#000000" height="28.346456" opacity="0.2" stroke="#FFFF90" stroke-width="1" width="17.716535" x="3.543307" y="428.740147" /><text fill="black" font-family="Verdana" font-size="15" stroke="black" stroke-width="0" x="7.086614" y="442.913375">BA (IAG)</text></g><g id="GUARD"><rect fill="#FFFF90" height="28.346456" opacity="0.85" stroke="#FFFF90" stroke-width="2" width="630.708646" x="3.543307" y="464.173217" /><rect fill="#909090" height="10.629921" opacity="0.2" stroke="#FFFF90" stroke-width="1" width="630.708646" x="3.543307" y="481.889752" /><rect fill="#0000FF" height="14.173228" opacity="0.35" stroke="#FFFF90" stroke-width="1" width="17.716535" x="3.543307" y="464.173217" /><rect fill="#000000" height="28.346456" opacity="0.2" stroke="#FFFF90" stroke-width="1" width="17.716535" x="3.543307" y="464.173217" /><text fill="black" font-family="Verdana" font-size="15" stroke="black" stroke-width="0" x="7.086614" y="478.346445">GUARD</text></g><g id="CWTS_-_Leiden"><rect fill="#FFFF90" height="28.346456" opacity="0.85" stroke="#FFFF90" stroke-width="2" width="1870.866096" x="3.543307" y="499.606287" /><rect fill="#909090" height="10.629921" opacity="0.2" stroke="#FFFF90" stroke-width="1" width="1870.866096" x="3.543307" y="517.322822" /><text fill="black" font-family="Verdana" font-size="15" stroke="black" stroke-width="0" x="7.086614" y="513.779515">CWTS - Leiden</text></g><g id="Safe_Haven"><rect fill="#FFFF90" height="28.346456" opacity="0.85" stroke="#FFFF90" stroke-width="2" width="453.543296" x="3.543307" y="535.039357" /><rect fill="#909090" height="10.629921" opacity="0.2" stroke="#FFFF90" stroke-width="1" width="453.543296" x="3.543307" y="552.755892" /><rect fill="#000000" height="28.346456" opacity="0.2" stroke="#FFFF90" stroke-width="1" width="17.716535" x="3.543307" y="535.039357" /><text fill="black" font-family="Verdana" font-size="15" stroke="black" stroke-width="0" x="7.086614" y="549.212585">Safe Haven</text></g><g id="Streaming_healthcare_analytics"><rect fill="#FFFF90" height="28.346456" opacity="0.85" stroke="#FFFF90" stroke-width="2" width="1410.236186" x="464.173217" y="570.472427" /><rect fill="#909090" height="10.629921" opacity="0.2" stroke="#FFFF90" stroke-width="1" width="1410.236186" x="464.173217" y="588.188962" /><rect fill="#000000" height="28.346456" opacity="0.2" stroke="#FFFF90" stroke-width="1" width="17.716535" x="1856.692868" y="570.472427" /><text fill="black" font-family="Verdana" font-size="15" stroke="black" stroke-width="0" x="467.716524" y="584.645655">Streaming healthcare analytics</text></g><g id="Clean_Air"><rect fill="#FFFF90" height="28.346456" opacity="0.85" stroke="#FFFF90" stroke-width="2" width="1374.803116" x="464.173217" y="605.905497" /><rect fill="#909090" height="10.629921" opacity="0.2" stroke="#FFFF90" stroke-width="1" width="1374.803116" x="464.173217" y="623.622032" /><text fill="black" font-family="Verdana" font-size="15" stroke="black" stroke-width="0" x="467.716524" y="620.078725">Clean Air</text></g><g id="AIDA-Lloyds"><rect fill="#FFFF90" height="28.346456" opacity="0.85" stroke="#FFFF90" stroke-width="2" width="1870.866096" x="3.543307" y="641.338567" /><rect fill="#909090" height="10.629921" opacity="0.2" stroke="#FFFF90" stroke-width="1" width="1870.866096" x="3.543307" y="659.055102" /><rect fill="#000000" height="28.346456" opacity="0.2" stroke="#FFFF90" stroke-width="1" width="17.716535" x="3.543307" y="641.338567" /><text fill="black" font-family="Verdana" font-size="15" stroke="black" stroke-width="0" x="7.086614" y="655.511795">AIDA-Lloyds</text></g><g id="Data_Science_Benchmarking"><rect fill="#FFFF90" height="28.346456" opacity="0.85" stroke="#FFFF90" stroke-width="2" width="453.543296" x="3.543307" y="676.7716369999999" /><rect fill="#909090" height="10.629921" opacity="0.2" stroke="#FFFF90" stroke-width="1" width="453.543296" x="3.543307" y="694.488172" /><rect fill="#0000FF" height="14.173228" opacity="0.35" stroke="#FFFF90" stroke-width="1" width="17.716535" x="3.543307" y="676.7716369999999" /><rect fill="#0000FF" height="14.173228" opacity="0.35" stroke="#FFFF90" stroke-width="1" width="17.716535" x="439.370068" y="676.7716369999999" /><rect fill="#000000" height="28.346456" opacity="0.2" stroke="#FFFF90" stroke-width="1" width="17.716535" x="3.543307" y="676.7716369999999" /><text fill="black" font-family="Verdana" font-size="15" stroke="black" stroke-width="0" x="7.086614" y="690.944865">Data Science Benchmarking</text></g><g id="Bayesian_Performance_Tuning"><rect fill="#FFFF90" height="28.346456" opacity="0.85" stroke="#FFFF90" stroke-width="2" width="1551.968466" x="145.275587" y="712.204707" /><rect fill="#909090" height="10.629921" opacity="0.2" stroke="#FFFF90" stroke-width="1" width="1551.968466" x="145.275587" y="729.921242" /><rect fill="#0000FF" height="14.173228" opacity="0.35" stroke="#FFFF90" stroke-width="1" width="17.716535" x="1679.527518" y="712.204707" /><text fill="black" font-family="Verdana" font-size="15" stroke="black" stroke-width="0" x="148.818894" y="726.377935">Bayesian Performance Tuning</text></g><g id="Maru"><rect fill="#FFFF90" height="28.346456" opacity="0.85" stroke="#FFFF90" stroke-width="2" width="453.543296" x="3.543307" y="747.637777" /><rect fill="#909090" height="10.629921" opacity="0.2" stroke="#FFFF90" stroke-width="1" width="453.543296" x="3.543307" y="765.354312" /><rect fill="#0000FF" height="14.173228" opacity="0.35" stroke="#FFFF90" stroke-width="1" width="17.716535" x="3.543307" y="747.637777" /><rect fill="#0000FF" height="14.173228" opacity="0.35" stroke="#FFFF90" stroke-width="1" width="17.716535" x="439.370068" y="747.637777" /><rect fill="#000000" height="28.346456" opacity="0.2" stroke="#FFFF90" stroke-width="1" width="17.716535" x="3.543307" y="747.637777" /><text fill="black" font-family="Verdana" font-size="15" stroke="black" stroke-width="0" x="7.086614" y="761.811005">Maru</text></g><g id="NATS"><rect fill="#FFFF90" height="28.346456" opacity="0.85" stroke="#FFFF90" stroke-width="2" width="1870.866096" x="3.543307" y="783.070847" /><rect fill="#909090" height="10.629921" opacity="0.2" stroke="#FFFF90" stroke-width="1" width="1870.866096" x="3.543307" y="800.787382" /><rect fill="#000000" height="28.346456" opacity="0.2" stroke="#FFFF90" stroke-width="1" width="17.716535" x="3.543307" y="783.070847" /><text fill="black" font-family="Verdana" font-size="15" stroke="black" stroke-width="0" x="7.086614" y="797.244075">NATS</text></g><g id="Probabilistic_FEM"><rect fill="#FFFF90" height="28.346456" opacity="0.85" stroke="#FFFF90" stroke-width="2" width="453.543296" x="3.543307" y="818.503917" /><rect fill="#909090" height="10.629921" opacity="0.2" stroke="#FFFF90" stroke-width="1" width="453.543296" x="3.543307" y="836.220452" /><rect fill="#000000" height="28.346456" opacity="0.2" stroke="#FFFF90" stroke-width="1" width="17.716535" x="3.543307" y="818.503917" /><text fill="black" font-family="Verdana" font-size="15" stroke="black" stroke-width="0" x="7.086614" y="832.677145">Probabilistic FEM</text></g><g id="Nocell"><rect fill="#FFFF90" height="28.346456" opacity="0.85" stroke="#FFFF90" stroke-width="2" width="772.440926" x="3.543307" y="853.936987" /><rect fill="#909090" height="10.629921" opacity="0.2" stroke="#FFFF90" stroke-width="1" width="772.440926" x="3.543307" y="871.653522" /><rect fill="#000000" height="28.346456" opacity="0.2" stroke="#FFFF90" stroke-width="1" width="17.716535" x="3.543307" y="853.936987" /><text fill="black" font-family="Verdana" font-size="15" stroke="black" stroke-width="0" x="7.086614" y="868.110215">Nocell</text></g><g id="Team_management"><rect fill="#FFFF90" height="28.346456" opacity="0.85" stroke="#FFFF90" stroke-width="2" width="1870.866096" x="3.543307" y="889.370057" /><rect fill="#909090" height="10.629921" opacity="0.2" stroke="#FFFF90" stroke-width="1" width="1870.866096" x="3.543307" y="907.086592" /><rect fill="#0000FF" height="14.173228" opacity="0.35" stroke="#FFFF90" stroke-width="1" width="17.716535" x="3.543307" y="889.370057" /><rect fill="#000000" height="28.346456" opacity="0.2" stroke="#FFFF90" stroke-width="1" width="17.716535" x="3.543307" y="889.370057" /><text fill="black" font-family="Verdana" font-size="15" stroke="black" stroke-width="0" x="7.086614" y="903.543285">Team management</text></g><g id="SPF_TPS_Theme_Management"><rect fill="#FFFF90" height="28.346456" opacity="0.85" stroke="#FFFF90" stroke-width="2" width="453.543296" x="3.543307" y="924.803127" /><rect fill="#909090" height="10.629921" opacity="0.2" stroke="#FFFF90" stroke-width="1" width="453.543296" x="3.543307" y="942.519662" /><rect fill="#000000" height="28.346456" opacity="0.2" stroke="#FFFF90" stroke-width="1" width="17.716535" x="3.543307" y="924.803127" /><text fill="black" font-family="Verdana" font-size="15" stroke="black" stroke-width="0" x="7.086614" y="938.976355">SPF TPS Theme Management</text></g><g id="SPF_Learning_Machines"><rect fill="#FFFF90" height="28.346456" opacity="0.85" stroke="#FFFF90" stroke-width="2" width="453.543296" x="3.543307" y="960.236197" /><rect fill="#909090" height="10.629921" opacity="0.2" stroke="#FFFF90" stroke-width="1" width="453.543296" x="3.543307" y="977.952732" /><text fill="black" font-family="Verdana" font-size="15" stroke="black" stroke-width="0" x="7.086614" y="974.4094249999999">SPF Learning Machines</text></g><g id="ALOGIT_Python"><rect fill="#FFFF90" height="28.346456" opacity="0.85" stroke="#FFFF90" stroke-width="2" width="453.543296" x="3.543307" y="995.669267" /><rect fill="#909090" height="10.629921" opacity="0.2" stroke="#FFFF90" stroke-width="1" width="453.543296" x="3.543307" y="1013.385802" /><rect fill="#0000FF" height="14.173228" opacity="0.35" stroke="#FFFF90" stroke-width="1" width="17.716535" x="439.370068" y="995.669267" /><rect fill="#000000" height="28.346456" opacity="0.2" stroke="#FFFF90" stroke-width="1" width="17.716535" x="3.543307" y="995.669267" /><text fill="black" font-family="Verdana" font-size="15" stroke="black" stroke-width="0" x="7.086614" y="1009.842495">ALOGIT Python</text></g><g id="UQM^3"><rect fill="#FFFF90" height="28.346456" opacity="0.85" stroke="#FFFF90" stroke-width="2" width="418.110226" x="38.976377" y="1031.102337" /><rect fill="#909090" height="10.629921" opacity="0.2" stroke="#FFFF90" stroke-width="1" width="418.110226" x="38.976377" y="1048.818872" /><text fill="black" font-family="Verdana" font-size="15" stroke="black" stroke-width="0" x="42.519684" y="1045.275565">UQM^3</text></g><g id="DS_for_Sustainable_Development"><rect fill="#FFFF90" height="28.346456" opacity="0.85" stroke="#FFFF90" stroke-width="2" width="1870.866096" x="3.543307" y="1066.535407" /><rect fill="#909090" height="10.629921" opacity="0.2" stroke="#FFFF90" stroke-width="1" width="1870.866096" x="3.543307" y="1084.251942" /><text fill="black" font-family="Verdana" font-size="15" stroke="black" stroke-width="0" x="7.086614" y="1080.708635">DS for Sustainable Development</text></g><g id="Urban_observatory_spatial_sampling"><rect fill="#FFFF90" height="28.346456" opacity="0.85" stroke="#FFFF90" stroke-width="2" width="1410.236186" x="464.173217" y="1101.968477" /><rect fill="#909090" height="10.629921" opacity="0.2" stroke="#FFFF90" stroke-width="1" width="1410.236186" x="464.173217" y="1119.685012" /><rect fill="#000000" height="28.346456" opacity="0.2" stroke="#FFFF90" stroke-width="1" width="17.716535" x="1856.692868" y="1101.968477" /><text fill="black" font-family="Verdana" font-size="15" stroke="black" stroke-width="0" x="467.716524" y="1116.141705">Urban observatory spatial sampling</text></g><g id="Knowledge_Flows"><rect fill="#FFFF90" height="28.346456" opacity="0.85" stroke="#FFFF90" stroke-width="2" width="1693.700746" x="3.543307" y="1137.401547" /><rect fill="#909090" height="10.629921" opacity="0.2" stroke="#FFFF90" stroke-width="1" width="1693.700746" x="3.543307" y="1155.118082" /><rect fill="#0000FF" height="14.173228" opacity="0.35" stroke="#FFFF90" stroke-width="1" width="17.716535" x="3.543307" y="1137.401547" /><rect fill="#0000FF" height="14.173228" opacity="0.35" stroke="#FFFF90" stroke-width="1" width="17.716535" x="1679.527518" y="1137.401547" /><rect fill="#000000" height="28.346456" opacity="0.2" stroke="#FFFF90" stroke-width="1" width="17.716535" x="3.543307" y="1137.401547" /><text fill="black" font-family="Verdana" font-size="15" stroke="black" stroke-width="0" x="7.086614" y="1151.574775">Knowledge Flows</text></g><g id="Auto_DL"><rect fill="#FFFF90" height="28.346456" opacity="0.85" stroke="#FFFF90" stroke-width="2" width="1481.102326" x="393.307077" y="1172.834617" /><rect fill="#909090" height="10.629921" opacity="0.2" stroke="#FFFF90" stroke-width="1" width="1481.102326" x="393.307077" y="1190.551152" /><text fill="black" font-family="Verdana" font-size="15" stroke="black" stroke-width="0" x="396.850384" y="1187.007845">Auto DL</text></g><g id="AI_assisted_diagnosis_of_children"><rect fill="#FFFF90" height="28.346456" opacity="0.85" stroke="#FFFF90" stroke-width="2" width="630.708646" x="1243.700757" y="1208.267687" /><rect fill="#909090" height="10.629921" opacity="0.2" stroke="#FFFF90" stroke-width="1" width="630.708646" x="1243.700757" y="1225.984222" /><rect fill="#0000FF" height="14.173228" opacity="0.35" stroke="#FFFF90" stroke-width="1" width="17.716535" x="1243.700757" y="1208.267687" /><rect fill="#000000" height="28.346456" opacity="0.2" stroke="#FFFF90" stroke-width="1" width="17.716535" x="1856.692868" y="1208.267687" /><text fill="black" font-family="Verdana" font-size="15" stroke="black" stroke-width="0" x="1247.244064" y="1222.440915">AI assisted diagnosis of children</text></g><g id="All_in_One_Cancer_imaging_optimisation"><rect fill="#FFFF90" height="28.346456" opacity="0.85" stroke="#FFFF90" stroke-width="2" width="630.708646" x="1243.700757" y="1243.700757" /><rect fill="#909090" height="10.629921" opacity="0.2" stroke="#FFFF90" stroke-width="1" width="630.708646" x="1243.700757" y="1261.417292" /><rect fill="#0000FF" height="14.173228" opacity="0.35" stroke="#FFFF90" stroke-width="1" width="17.716535" x="1243.700757" y="1243.700757" /><rect fill="#000000" height="28.346456" opacity="0.2" stroke="#FFFF90" stroke-width="1" width="17.716535" x="1856.692868" y="1243.700757" /><text fill="black" font-family="Verdana" font-size="15" stroke="black" stroke-width="0" x="1247.244064" y="1257.873985">All in One Cancer imaging optimisation</text></g><g id="Biobank_algorithm"><rect fill="#FFFF90" height="28.346456" opacity="0.85" stroke="#FFFF90" stroke-width="2" width="1870.866096" x="3.543307" y="1279.1338269999999" /><rect fill="#909090" height="10.629921" opacity="0.2" stroke="#FFFF90" stroke-width="1" width="1870.866096" x="3.543307" y="1296.850362" /><rect fill="#000000" height="28.346456" opacity="0.2" stroke="#FFFF90" stroke-width="1" width="17.716535" x="3.543307" y="1279.1338269999999" /><rect fill="#000000" height="28.346456" opacity="0.2" stroke="#FFFF90" stroke-width="1" width="17.716535" x="1856.692868" y="1279.1338269999999" /><text fill="black" font-family="Verdana" font-size="15" stroke="black" stroke-width="0" x="7.086614" y="1293.307055">Biobank algorithm</text></g><g id="Early_dementia_diagnosis"><rect fill="#FFFF90" height="28.346456" opacity="0.85" stroke="#FFFF90" stroke-width="2" width="630.708646" x="1243.700757" y="1314.566897" /><rect fill="#909090" height="10.629921" opacity="0.2" stroke="#FFFF90" stroke-width="1" width="630.708646" x="1243.700757" y="1332.283432" /><rect fill="#0000FF" height="14.173228" opacity="0.35" stroke="#FFFF90" stroke-width="1" width="17.716535" x="1243.700757" y="1314.566897" /><rect fill="#000000" height="28.346456" opacity="0.2" stroke="#FFFF90" stroke-width="1" width="17.716535" x="1856.692868" y="1314.566897" /><text fill="black" font-family="Verdana" font-size="15" stroke="black" stroke-width="0" x="1247.244064" y="1328.740125">Early dementia diagnosis</text></g><g id="Fusion_modelling-_IDEA"><rect fill="#FFFF90" height="28.346456" opacity="0.85" stroke="#FFFF90" stroke-width="2" width="1410.236186" x="464.173217" y="1349.999967" /><rect fill="#909090" height="10.629921" opacity="0.2" stroke="#FFFF90" stroke-width="1" width="1410.236186" x="464.173217" y="1367.716502" /><rect fill="#000000" height="28.346456" opacity="0.2" stroke="#FFFF90" stroke-width="1" width="17.716535" x="1856.692868" y="1349.999967" /><text fill="black" font-family="Verdana" font-size="15" stroke="black" stroke-width="0" x="467.716524" y="1364.173195">Fusion modelling- IDEA</text></g><g id="Uncertainty_in_Government_Modelling"><rect fill="#FFFF90" height="28.346456" opacity="0.85" stroke="#FFFF90" stroke-width="2" width="1410.236186" x="464.173217" y="1385.433037" /><rect fill="#909090" height="10.629921" opacity="0.2" stroke="#FFFF90" stroke-width="1" width="1410.236186" x="464.173217" y="1403.149572" /><rect fill="#000000" height="28.346456" opacity="0.2" stroke="#FFFF90" stroke-width="1" width="17.716535" x="1856.692868" y="1385.433037" /><text fill="black" font-family="Verdana" font-size="15" stroke="black" stroke-width="0" x="467.716524" y="1399.606265">Uncertainty in Government Modelling</text></g><g id="Interpretable_AI_for_health"><rect fill="#FFFF90" height="28.346456" opacity="0.85" stroke="#FFFF90" stroke-width="2" width="488.976366" x="1385.433037" y="1420.866107" /><rect fill="#909090" height="10.629921" opacity="0.2" stroke="#FFFF90" stroke-width="1" width="488.976366" x="1385.433037" y="1438.582642" /><text fill="black" font-family="Verdana" font-size="15" stroke="black" stroke-width="0" x="1388.976344" y="1435.039335">Interpretable AI for health</text></g><g id="Justice"><rect fill="#FFFF90" height="28.346456" opacity="0.85" stroke="#FFFF90" stroke-width="2" width="1410.236186" x="464.173217" y="1456.299177" /><rect fill="#909090" height="10.629921" opacity="0.2" stroke="#FFFF90" stroke-width="1" width="1410.236186" x="464.173217" y="1474.015712" /><text fill="black" font-family="Verdana" font-size="15" stroke="black" stroke-width="0" x="467.716524" y="1470.472405">Justice</text></g><g id="Leeds:_Lomax__Malleson__Heppenstall"><rect fill="#FFFF90" height="28.346456" opacity="0.85" stroke="#FFFF90" stroke-width="2" width="1410.236186" x="464.173217" y="1491.732247" /><rect fill="#909090" height="10.629921" opacity="0.2" stroke="#FFFF90" stroke-width="1" width="1410.236186" x="464.173217" y="1509.448782" /><rect fill="#000000" height="28.346456" opacity="0.2" stroke="#FFFF90" stroke-width="1" width="17.716535" x="1856.692868" y="1491.732247" /><text fill="black" font-family="Verdana" font-size="15" stroke="black" stroke-width="0" x="467.716524" y="1505.905475">Leeds: Lomax, Malleson, Heppenstall</text></g><g id="Longitudinal_time_series"><rect fill="#FFFF90" height="28.346456" opacity="0.85" stroke="#FFFF90" stroke-width="2" width="630.708646" x="1243.700757" y="1527.165317" /><rect fill="#909090" height="10.629921" opacity="0.2" stroke="#FFFF90" stroke-width="1" width="630.708646" x="1243.700757" y="1544.881852" /><rect fill="#0000FF" height="14.173228" opacity="0.35" stroke="#FFFF90" stroke-width="1" width="17.716535" x="1243.700757" y="1527.165317" /><rect fill="#000000" height="28.346456" opacity="0.2" stroke="#FFFF90" stroke-width="1" width="17.716535" x="1856.692868" y="1527.165317" /><text fill="black" font-family="Verdana" font-size="15" stroke="black" stroke-width="0" x="1247.244064" y="1541.338545">Longitudinal time series</text></g><g id="Micro-location_analytics"><rect fill="#FFFF90" height="28.346456" opacity="0.85" stroke="#FFFF90" stroke-width="2" width="630.708646" x="464.173217" y="1562.598387" /><rect fill="#909090" height="10.629921" opacity="0.2" stroke="#FFFF90" stroke-width="1" width="630.708646" x="464.173217" y="1580.314922" /><text fill="black" font-family="Verdana" font-size="15" stroke="black" stroke-width="0" x="467.716524" y="1576.7716149999999">Micro-location analytics</text></g><g id="Machine_learning_for_cancer"><rect fill="#FFFF90" height="28.346456" opacity="0.85" stroke="#FFFF90" stroke-width="2" width="488.976366" x="1385.433037" y="1598.031457" /><rect fill="#909090" height="10.629921" opacity="0.2" stroke="#FFFF90" stroke-width="1" width="488.976366" x="1385.433037" y="1615.747992" /><rect fill="#000000" height="28.346456" opacity="0.2" stroke="#FFFF90" stroke-width="1" width="17.716535" x="1856.692868" y="1598.031457" /><text fill="black" font-family="Verdana" font-size="15" stroke="black" stroke-width="0" x="1388.976344" y="1612.204685">Machine learning for cancer</text></g><g id="Retinopathy"><rect fill="#FFFF90" height="28.346456" opacity="0.85" stroke="#FFFF90" stroke-width="2" width="1091.338556" x="464.173217" y="1633.464527" /><rect fill="#909090" height="10.629921" opacity="0.2" stroke="#FFFF90" stroke-width="1" width="1091.338556" x="464.173217" y="1651.1810619999999" /><text fill="black" font-family="Verdana" font-size="15" stroke="black" stroke-width="0" x="467.716524" y="1647.637755">Retinopathy</text></g><g id="Synthetic_data"><rect fill="#FFFF90" height="28.346456" opacity="0.85" stroke="#FFFF90" stroke-width="2" width="453.543296" x="3.543307" y="1668.897597" /><rect fill="#909090" height="10.629921" opacity="0.2" stroke="#FFFF90" stroke-width="1" width="453.543296" x="3.543307" y="1686.614132" /><rect fill="#0000FF" height="14.173228" opacity="0.35" stroke="#FFFF90" stroke-width="1" width="17.716535" x="439.370068" y="1668.897597" /><text fill="black" font-family="Verdana" font-size="15" stroke="black" stroke-width="0" x="7.086614" y="1683.070825">Synthetic data</text></g><g id="Urban_systems_resilience"><rect fill="#FFFF90" height="28.346456" opacity="0.85" stroke="#FFFF90" stroke-width="2" width="488.976366" x="1385.433037" y="1704.330667" /><rect fill="#909090" height="10.629921" opacity="0.2" stroke="#FFFF90" stroke-width="1" width="488.976366" x="1385.433037" y="1722.047202" /><text fill="black" font-family="Verdana" font-size="15" stroke="black" stroke-width="0" x="1388.976344" y="1718.503895">Urban systems resilience</text></g></g></g><g /></g></svg>